<svg id="Layer_1" data-name="Layer 1" xmlns="http://www.w3.org/2000/svg" viewBox="0 0 3215.76 1145.14"><defs><style>.cls-1{fill:#eb2f06;}</style></defs><path d="M3477.59,1189.27a90.08,90.08,0,0,0-9,3.36c-10.66,5.36-20.87,11.84-31.92,16.17-22,8.61-44.28,16.74-68.26,18.18-14,.85-28,.77-41.69-2.57s-24.84-10.82-35.21-20-16.78-20.32-20.63-33.34c-.73-2.48-2.54-4.63-3.66-7s-2.66-4.83-2.83-7.33c-.95-14.29-1-28.3,4.09-42.31,6.72-18.37,15.67-35.46,27.88-50.38,13-15.88,27.3-30.53,45.31-41.53a239.34,239.34,0,0,1,37.14-19,138.16,138.16,0,0,1,41.63-9.73c22.6-1.53,45.23-2.79,67.37,3.43,11.61,3.27,22.74,8.62,30.79,17.48,8.33,9.15,10.87,20.89,8.82,33.58-2.15,13.36-10.11,22.84-19.2,31.85-15.2,15.06-34.32,23.07-54.35,28.37-30.28,8-61.2,8.81-92.2,4.22a55.05,55.05,0,0,1-6.82-1.53c-8.38-2.33-13-1-15.85,6.91-3.94,11.21-8.47,22.32-8.57,34.69-.18,20.85,10.43,33.39,29.45,38.5a99.09,99.09,0,0,0,38.52,2.49c18.68-2.62,37-8.07,55.23-13.34,7.15-2.07,13.66-6.64,20.17-10.57,9.52-5.74,19.19-11.39,28-18.07a249.46,249.46,0,0,0,24.47-21.7c7.27-7.15,13.38-9.16,20.31-5.22,5.48,3.12,6.43,7.37,1.53,10.95-13.45,9.84-19.17,24.68-26.26,38.71-6.74,13.34-13.45,26.72-20.42,39.94-7.13,13.52-14.23,27.08-22,40.25-6.86,11.68-14.46,22.94-22,34.22-7.37,11.06-14.46,22.39-22.77,32.72-10.52,13.1-20.12,27-33.62,37.66-9.39,7.38-17.32,16.66-26.91,23.73a344.08,344.08,0,0,1-68.91,39.5c-26.41,11.28-53.8,19.16-81.76,25.69-38.19,8.93-76.89,11.85-115.87,14.22-39.77,2.41-79.3-.29-118.83-2.7-22.51-1.38-44.87-5.61-67.24-8.91-20.44-3-41-5.8-61.16-10-26.4-5.47-52.63-11.83-78.74-18.54-29.66-7.63-59.39-15.17-88.57-24.41-34.71-11-70.31-18-105.69-26-33.76-7.59-68-13.23-102-19.52q-25-4.62-50.21-8.46-41.91-6.4-83.91-12.25c-10.88-1.5-21.87-2.31-32.83-3.19-19.91-1.61-39.83-3-59.75-4.55-1-.07-2-.11-3-.24-65-8.15-130.24-8.57-195.55-8.42-28.31.06-56.63-.2-84.93.27-42.28.7-84.52,2.6-126.58,7.36-28.12,3.17-56.23,6.51-84.34,9.81-2.31.27-4.6.78-6.88,1.23q-26,5.17-51.93,10.37a846.23,846.23,0,0,0-119.39,32.76c-12.51,4.48-25.24,8.79-37,14.86-20,10.32-40.31,20.23-58.22,34.19-7.27,5.66-14.86,10.9-23,16.87,0-2-.54-3.68.08-4.68,8.56-13.79,15.25-28.74,26.59-40.79,6.33-6.74,11.54-14.53,17.56-21.58,16.75-19.59,36.87-35.35,57.25-51,27.61-21.15,58.16-37.26,88.86-53.06,14.68-7.56,30.4-13.14,45.79-19.27q24.51-9.76,49.31-18.82c7.5-2.74,15.3-4.61,22.93-7,41.46-12.91,84-21.36,126.85-27.25,29-4,58.41-5.06,87.64-7.37,51.34-4.06,102.54-1.09,153.74,2.83,19.91,1.53,39.92,2.12,59.77,4.2,19.5,2,38.84,5.56,58.27,8.21,12.86,1.75,25.84,2.65,38.64,4.75,32.54,5.34,65.12,10.56,97.48,16.92,36.23,7.12,72.3,15.13,108.32,23.3,42.88,9.74,85.71,19.72,128.39,30.25,36.19,8.93,72.09,19,108.22,28.17,17.11,4.33,34.48,7.6,51.72,11.39,38.09,8.38,76.41,15.37,115.25,19.31,35.14,3.56,70.34,5.37,105.7,5.75,36.71.39,73.19-2,109.67-5.08,12.6-1.09,25.16-3,37.61-5.24,19.34-3.49,38.68-7.09,57.8-11.59,18.79-4.43,37.61-9.12,55.86-15.35,19.77-6.75,39-15.19,58.27-23.33,13.45-5.68,27-11.37,39.76-18.39a389.67,389.67,0,0,0,40.48-25.6c19.65-14.22,38.59-29.41,57.78-44.25C3476,1196.62,3479.18,1194.8,3477.59,1189.27Zm-121-96.33,1.4,3c7.47-.41,15.13.07,22.39-1.42,14.94-3.06,29.76-6.82,44.44-11,20.17-5.66,37.88-15.93,52-31.43,4.35-4.76,7.44-11,9.8-17.13,3.21-8.28.36-12.84-8.39-14.06a60.46,60.46,0,0,0-16.78.05c-17.46,2.52-32.44,11.39-47.18,20.2-19.46,11.62-35.42,27.72-51.93,43-2.42,2.35-3.81,5.85-5.71,8.79Z" transform="translate(-335.53 -318.27)"/><path d="M1352.16,811.62c-17.49,5.61-35.45,5.51-52.87,13.37,2.69,2.29,4,4.22,5.87,4.83a78.45,78.45,0,0,0,10.73,2.28c18.09,3.34,32,13,44.42,26.47,12.63,13.72,17.82,29.87,21.19,47.45,2.47,12.93-2.4,24.39-5.71,36-6.23,21.86-19.32,39.8-35.23,55.65a206,206,0,0,1-64.13,43.33c-9.72,4.21-19.54,8.16-29.22,12.43-2,.86-3.5,2.61-7.58,5.77,3,1.67,5.36,2.42,7,3.94,6.72,6.39,14,12.37,19.66,19.65,17.28,22.4,30.79,47.23,44.11,72.09,11.78,22,22.47,44.58,34.65,66.34,4.93,8.81,12.47,16.18,18.92,24.12,7,8.65,16.23,14.79,25.75,20,6.22,3.42,13.6,5.38,20.69,6.45,11.82,1.77,23.84,3.27,35.69-.35a3.39,3.39,0,0,1,1-.18c3.48-.08,8-2.16,9.72,2.3,1.82,4.64-3,5.8-5.73,8-6.21,4.9-12.06,10.26-18.37,15a101.26,101.26,0,0,1-35.51,17.24c-21.68,5.67-43.45,6.41-65-.48a76.34,76.34,0,0,1-34.39-22.8,333.9,333.9,0,0,1-22.61-28.92c-3.55-5.08-5.29-11.4-8-17.08-12.29-25.59-20.25-52.64-27.5-80-3-11.23-7.43-22.07-10.55-33.27-3.77-13.58-11.36-25.3-17.31-37.82-5.72-12-17.15-16.83-28.34-20.37-5-1.59-12.2,2-17.78,4.58-7.07,3.28-11.31,8.83-13.2,17.28-1.83,8.22-6.93,15.72-10.6,23.53-18.21,38.77-40.43,75-71.45,104.84s-67.21,51-111.32,55.67c-27.12,2.86-52.66-1.43-75.14-17.41-11.35-8.06-20.65-18.56-28.17-30.44-12.28-19.38-17.48-40.92-18.41-63.49-1.14-27.57,2.71-54.63,12.37-80.47,5.81-15.54,13.34-30.36,23.71-43.72a132.17,132.17,0,0,1,31.73-29.84c20.27-13.32,41.91-23.2,67.13-21.53q3,.12,6-.06c4.86-.16,7-2.7,7.35-7.55,1.75-23.71,12.88-43.2,29.1-59.61,10.69-10.81,22-21.67,34.92-29.47,21.11-12.76,41.91-26.64,66.34-33.09,5.7-1.51,10.75-5.35,16.42-7,28.66-8.63,57.19-17.79,86.67-23.48,3.5-.67,6.8-2.56,10.08-4.11,12.32-5.83,24.45-12.07,36.92-17.55,12.72-5.59,26.52-6.36,40.13-6.77,11.3-.34,22.64.63,34,1.24C1344.38,804.87,1348.91,805,1352.16,811.62ZM1107.3,907.69l2.93.84q2.6,13,5.18,26a2.42,2.42,0,0,1-.12,1c-2,8.75-3.81,17.57-6.23,26.21-1.33,4.76-2.89,9.89-5.86,13.66-7.52,9.55-14.24,20.12-24.89,26.64-10.13,6.21-20.43,12.34-31.25,17.17-8,3.56-10.52,7.25-4.73,13.61,7.73,8.5,10,18.64,10.94,29.26,2.23,24.29-.57,47.4-12.65,69.54-16.93,31-41,52.8-74.75,63.36-7.3,2.28-15.07,4.1-23,2.35.12-1.46,0-2.2.27-2.71a13,13,0,0,1,1.86-2.32c20.86-22,41-44.07,50.66-74,7.26-22.52,12.59-44.85,8.56-68.49-3.06-18-14.35-29.64-30.88-35.94a47.09,47.09,0,0,0-19.5-2.83c-18.68,1.33-34.31,10.14-47.54,22.88-17.89,17.21-30.24,37.51-35.71,62.28a203.45,203.45,0,0,0-4.14,32.44c-1.87,32,7.29,60.12,28.51,84.4,9.45,10.81,21.48,16.2,34.84,20.17,7,2.07,13.71,2.74,20.61,1,21-5.16,42.42-9.5,59.74-23.76,9.46-7.78,19.49-15.23,27.49-24.38,13-14.85,22.17-32.36,29.76-50.55,5.37-12.88,10.17-26,15-39.09,6.95-18.7,14.17-37.32,20.46-56.25,7.33-22.05,14.3-44.22,23.17-65.71,3.91-9.47,8.4-18.69,12.85-27.91,6.52-13.47,12.44-27.31,20.09-40.12,7.47-12.51,16.79-23.91,25.28-35.82,2.38-3.32,6.24-6.2,3.87-11.46-1.89,0-3.57-.32-5.08.05-17.74,4.35-35.62,8.28-53.12,13.45-10.75,3.17-21.09,7.92-31.31,12.61-9.6,4.4-19,9.26-26.86,16.68-9.9,9.32-20.4,18-30.37,27.26-2.62,2.44-4.26,5.93-6.35,8.93a62.81,62.81,0,0,1-4.61,6.48c-8,8.81-11.17,19.64-12.24,31-1.11,11.8,5.45,16.6,16,11.52a78.45,78.45,0,0,0,19.58-13.44A280.85,280.85,0,0,0,1102,914.1C1103.41,911.75,1105.51,909.81,1107.3,907.69ZM1175.37,1039c6.73.3,13.46-.31,19.73,1.09,9.06,2,16.64-1.07,23.62-5.45,12.92-8.13,25.9-16.24,37-27,19.7-19.14,37.42-39.63,46.45-66.17a165.94,165.94,0,0,0,4.72-18.33c4.29-19.7-2.73-42.06-19.91-53.65-9.73-6.57-21.31-7.23-31.37-12.29-1-.52-3.33.44-4.45,1.4-3.52,3-7.18,6-10,9.63-21.71,27.14-31.68,59.77-42.8,91.77-4.24,12.22-8.08,24.58-12,36.92s-7.6,24.8-11.27,37.24C1174.79,1035.32,1175.23,1036.71,1175.37,1039Z" transform="translate(-335.53 -318.27)"/><path d="M514.74,707.05c3.36-4.8,5.73-7.5,7.34-10.59a105.33,105.33,0,0,1,51.89-49,26.33,26.33,0,0,1,5.67-1.86c8.14-1.62,10.41.64,8.89,8.84-7.07,38-14.43,75.86-21.18,113.87-5.12,28.83-9.35,57.8-14.21,86.69-4.07,24.29-8.42,48.53-12.66,72.8-.23,1.31-.58,2.6-.77,3.92-1.14,8.2.16,9.6,8.35,8.71,23.84-2.57,47.77-4.54,71.49-8a491,491,0,0,0,54.77-11.24,89.38,89.38,0,0,0,41.49-24.53c.85-.88,2.2-1.27,3.42-1.94,4.71,3.7,2.8,8.15,1.81,12.09-5.77,22.93-18.36,41.12-38.37,53.92-15.13,9.69-31.61,16.22-48.37,22.79-32.25,12.61-66.3,13.65-99.63,19.16-8.34,1.37-9.7,2.06-12,10.63-5.56,21-11.78,41.74-23.81,60a150.83,150.83,0,0,1-19.81,24.82c-14.74,14.51-32.43,24.59-53.08,27.71-20.25,3-40,1.15-56.57-12.7-5-4.2-10-9.24-12.92-15-11.92-23.32-16.25-47.21-1.62-71.27a108.22,108.22,0,0,1,33.63-34.47,231.87,231.87,0,0,1,58.14-28q11.81-3.74,23.78-6.94c3.51-1,6.54-2.54,7-6.23,1.69-14.85,3.09-29.73,4.45-44.61.1-1.1-1-2.31-1.65-3.78-6.18.34-7.63,5.21-9.34,9.21a92.56,92.56,0,0,1-27,35.33C415,971,376,965.64,353.51,937.45c-15-18.8-17.54-40.52-17.95-63-.65-35.09,9.8-67.53,24-99.12,8.45-18.72,20.16-35.12,33.93-50.09,9-9.79,19.76-17.47,30.78-25.09a89.41,89.41,0,0,1,36.56-14.88c14.5-2.46,28.77-1.16,41,7.9C506.32,696.41,509.51,701.29,514.74,707.05ZM395.61,863.24c1.33,8.09,2.63,20.7,5.69,32.85,2.07,8.21,7.46,14.59,17.28,15.5,14.78,1.37,26.51-4.06,36-15.06,2.81-3.27,5.8-6.51,8-10.21,6.3-10.78,13.59-21.26,17.93-32.82,5-13.27,7.6-27.48,10.51-41.43,3.12-15,4.29-30.43,8.36-45.1,3.24-11.65,2.38-22.17-1.3-33.15-4-11.72-14.54-19.48-26.8-17.82-6.42.87-12.81,3.42-18.73,6.23-13.36,6.33-20.11,19-27.66,30.7-8.74,13.58-12.83,29-18.34,44C399.14,817.12,397.76,837.83,395.61,863.24Zm74.27,147.13c-3.78.27-6.09.26-8.34.62-14.46,2.33-28.66,5.26-42.61,10.28-9.54,3.43-18.32,7.21-26.45,13.31-12.93,9.68-16.65,22.69-15.19,37.8,1,10.7,12.37,22.64,22.85,25.12,23.39,5.56,44.51-8.84,56.28-28.8,9.06-15.36,10.79-32.68,14.07-49.6C471,1016.68,470.17,1014,469.88,1010.37Z" transform="translate(-335.53 -318.27)"/><path d="M1348.44,667.23c-2.81,3-5.94,5.76-8.38,9-8.81,11.76-18.34,22.81-30,31.85-14.57,11.29-30.65,18.4-49.49,18.56-11.11.1-21.13-4.24-30.25-9.08-6.8-3.6-12.53-10.89-16.48-17.82-6.91-12.12-12.58-25.12-13.73-39.33-1.14-13.92-1.5-27.84,3.34-41.39,3.46-9.71,5.67-19.92,9.72-29.37,6.65-15.49,14-30.72,24.88-43.92,4.2-5.09,7.32-11.08,11.66-16,7.42-8.44,14.45-17.69,23.39-24.22,11.68-8.52,23.39-17.24,37.64-22.13,11.69-4,23.21-7.93,35.46-9.66,17.3-2.43,33.21,1.14,47.3,11.35,4.11,3,7,7.65,11.43,12.65,2.14-2.58,4.47-4.7,6-7.3,7.93-13.83,15.64-27.8,23.45-41.71,2.44-4.35,4.8-8.75,7.41-13,12.45-20.33,24.32-41,39-60,13.39-17.34,30.15-27.81,52.16-29.17a45,45,0,0,1,13.83.88c7.85,2.05,9.15,8.41,3.37,14-1.17,1.13-3.11,2.15-3.35,3.46-2.38,13.28-13.35,21.77-18.48,33.7-5,11.77-13.53,22-19.84,33.31-9.25,16.54-18.09,33.32-26.76,50.17-10.63,20.65-20.91,41.48-31.34,62.23-.59,1.19-1.32,2.32-1.79,3.56-7.59,19.5-17.74,37.91-23.51,58.15-4.73,16.6-10.76,32.83-16.15,49.24-1.93,5.87-3.16,12.31,1.64,16.94,5.28,5.07,12.19,3.42,17.76.19,8.28-4.8,17.07-9.51,23.69-16.19,14-14.12,27.41-28.94,37.74-46.23,7-11.67,14.6-23,21.94-34.41a19.85,19.85,0,0,1,1.66-2.48c3.87-4.36,11.12-5.74,14.34-2.77,3.06,2.81,2.36,8.87-1.11,13.68-3.06,4.25-5.59,8.88-8.54,13.22-8.77,12.87-17.26,26-26.56,38.44-8.13,10.91-16.9,21.39-26,31.55-11.5,12.9-24.1,25-38.76,34A80,80,0,0,1,1397,712.09c-16.41,2.36-40.31-11.13-43.89-34.33-.48-3.12-1-6.24-1.54-9.36ZM1263.5,654c.31,5.92-.31,12.08,1.12,17.71,3.42,13.44,12.15,17.09,24.1,10.09a179.69,179.69,0,0,0,25.37-17.44,182,182,0,0,0,23.76-24A139.73,139.73,0,0,0,1355.59,613q14.13-29.69,26-60.41c3-7.83,4-16.86,4-25.35.08-20-16.84-31.2-35.07-22.83-14.49,6.65-28.33,15.06-38.35,28-7.72,10-14.5,20.63-21.85,30.88-7.61,10.61-7.78,24.73-16.53,34.78a1.79,1.79,0,0,0-.31,1C1270.56,617.26,1263.57,634.94,1263.5,654Z" transform="translate(-335.53 -318.27)"/><path d="M3029.9,938.44c-2.68,4.29-3.83,7.09-5.79,9.12-8.72,9-18.22,17.33-26.41,26.8-15.2,17.57-30.26,35.32-44.27,53.84-11.8,15.59-21.53,32.74-33.17,48.46a58.25,58.25,0,0,0-9.56,20.43c-2,7.72,1.7,13.08,9.73,13.31,9.32.28,17.38-3.92,25.59-7.6,17.26-7.71,31.35-19.61,44.79-32.63a287.74,287.74,0,0,0,26.72-29.12c4.77-6.09,14.57-7.08,19.61-2.28,2.41,2.3,3.6,4.81,1.05,7.82-10.05,11.9-19.61,24.24-30.22,35.61-17.5,18.75-36.42,35.9-57.66,50.56-12.17,8.39-26,11.78-39.45,16.4a3.81,3.81,0,0,1-2,.28c-16.61-3.33-33.49-5.87-44.13-21.69-4.29-6.37-9-12-9.15-20.42-.13-6.31-3.75-7.36-8.59-3.37-1.79,1.47-3.17,3.43-4.9,5-14.59,13-30.51,24-50.08,27.65-28,5.14-51.24-4.2-66.81-27.63-10.55-15.88-12.85-34.88-9.66-53.92,1.42-8.5,3.87-16.85,6.13-25.19,4.61-17,14.26-31.49,24.35-45.48,23-32,53.06-55.79,88.59-72.61,5.9-2.79,12.61-4,19.06-5.51,19.87-4.53,39.85-5.45,58.74,3.21,13.51,6.2,26.86,13.47,32.77,28.78a27.76,27.76,0,0,0,3.42,6.08c2.78,3.9,6.29,4.46,10.44,2s8.69-4.83,13-7.35c13.64-8,28.53-8,43.47-6.21C3019.86,933.28,3024,936,3029.9,938.44Zm-172.38,126.35c-5-3.07-9.19-.74-13.27-.74-2,0-5.52-1.43-5.62-2.48-.22-2.18,1-4.77,2.36-6.75.8-1.19,2.91-1.46,4.34-2.3,5.12-3.06,10.57-5.72,15.25-9.36,17.34-13.54,33.19-28.33,45.63-47a90.72,90.72,0,0,0,13.59-33.8c3.31-16.93-7.07-29-24.33-28.6A60.18,60.18,0,0,0,2877,937c-21.36,7.57-37.7,22.53-52,39.19-13.41,15.61-24.12,33.18-33.29,51.93a130.17,130.17,0,0,0-12.59,41.63c-2.28,18,12.93,29.7,30.14,23.88,15.7-5.31,30.82-12.63,44-23.17C2854.81,1069.16,2855.8,1067.09,2857.52,1064.79Z" transform="translate(-335.53 -318.27)"/><path d="M3102.08,1182.72c-16.36,1.7-29.7-3.8-43-11.53-10.25-6-14.69-15.16-20.27-24.45-11.28-18.75-7.72-37.77-2.16-56.79,3.44-11.77,6.7-24,12.69-34.52,9.65-16.94,20.15-33.76,32.71-48.58,18.89-22.31,39.77-42.94,60-64.09,9.87-10.32,19.88-20.53,30.4-30.17,12.48-11.42,26.31-21.19,40.44-30.54,19.51-12.91,40.05-23.83,62.34-31,17.56-5.64,35.56-8.76,54-3.66,2.51.69,5.27.59,7.92.68,11.34.42,19.79,9.61,17.37,20.55-3,13.56-7.11,26.48-16.66,37.77-14.21,16.8-28.91,33.1-45.56,47.31-17.12,14.62-34.06,29.6-53.6,41.31-13,7.82-24.8,17.71-37.6,26-10,6.43-20.64,11.91-31.16,17.5q-22,11.71-44.3,22.93a25.29,25.29,0,0,0-13,14.32c-2.22,5.72-7.22,10.37-9.36,16.1a261.76,261.76,0,0,0-9.39,31.49c-2.75,11.72,9.13,28.22,21,29.26s23.2-.82,33.66-6.92a75,75,0,0,1,8.08-3.77c5.78-2.5,12.14-4.12,17.29-7.56,11.29-7.55,24.4-12,34.45-21.82,6.51-6.36,15.32-10.32,22.33-16.27a223.55,223.55,0,0,0,21.78-21.53c3.79-4.22,7.69-6.24,13.08-5,6.14,1.36,8.76,7.56,4.68,12.16-8.57,9.67-17,19.65-26.68,28.12-15.19,13.28-30.6,26.63-47.42,37.66-13.18,8.64-26.49,18-42.16,22.34a33.3,33.3,0,0,0-5.53,2.27C3133.58,1179.43,3118.22,1184.55,3102.08,1182.72Zm56.4-168.63,2,3.14c2.8-1.33,5.8-2.34,8.36-4,13-8.6,26.52-16.65,38.79-26.25,22.24-17.39,43.93-35.51,65.45-53.78,10.59-9,20.59-18.75,30.3-28.7,5.06-5.19,9-11.46,13.17-17.47,1-1.44.63-3.82,1-7-65.2,32.2-111.88,83.43-159.07,134.06Z" transform="translate(-335.53 -318.27)"/><path d="M1664.48,618c-2.15,1.47-4,2.22-5.14,3.58-9.49,11.53-18.52,23.45-28.37,34.65-5.42,6.16-12,11.38-18.34,16.61-5.11,4.2-10.79,7.7-16.14,11.62-11.1,8.12-36.84,10.34-47.76,2.44-7.57-5.48-14.38-12.11-17.77-22A78.3,78.3,0,0,1,1528.7,621c3.46-15.27,6.34-30.52,13.82-44.63,4.46-8.42,6.41-18.15,10.85-26.58,5.16-9.82,11.59-19,17.86-28.22,6.89-10.13,13.73-20.37,21.48-29.85,8.61-10.53,18.6-20.24,30.76-26.33,17.16-8.6,34.79-7.6,51.37,2.63,6.3,3.89,6.44,5.78,1.79,11.9-13.25,17.41-26.87,34.55-39.71,52.26-7.16,9.89-13.1,20.68-19.5,31.12-6.92,11.29-13.46,22.81-20.66,33.91s-10.21,23.87-11.65,36.69c-1.12,10,5.77,14.29,15.6,11.24,11.48-3.56,20.87-10.84,28.89-19.12,12.47-12.87,23.91-26.78,35.24-40.69s22.38-28,32.73-42.59c8-11.33,14.45-23.8,22.22-35.34,10.76-16,21.8-31.8,33.35-47.22,4.69-6.26,11.57-8.36,19.65-5.33,6.51,2.44,13.42,3.83,20,6a27.91,27.91,0,0,1,8,4c8.29,6.19,9.92,12.5,5,21.74s-10.57,18.45-16,27.58c-9.35,15.66-17.86,31.94-28.55,46.64-7.51,10.32-12,21.93-18.48,32.62-8.38,13.87-12.47,29.27-16.37,44.72-2,7.86,1.43,14.48,7.4,19.51,5.62,4.74,11.66,3,17.85.55,10.53-4.06,18.78-11.44,26.6-18.92,11-10.53,20.89-22.22,31.11-33.54,7.07-7.83,14.12-15.69,20.71-23.9a68.5,68.5,0,0,0,9.87-15.61c2-4.8,5.57-6.28,9.73-7.51,3.56-1,6.54-.13,8.65,3.14s1.7,6-.57,9.13c-7.35,10.1-14.29,20.49-21.69,30.55-8.64,11.74-17.06,23.71-26.58,34.72-8.38,9.7-19.1,17.47-27,27.47s-19.39,15.18-29.38,21.59a66.42,66.42,0,0,1-36,10c-11.4-.08-22-1.51-30.65-9.43A78.48,78.48,0,0,1,1676,674c-10.38-14.36-14.75-30.15-10.65-47.8a23.31,23.31,0,0,0,.44-4.93C1665.8,620.62,1665.33,620,1664.48,618Z" transform="translate(-335.53 -318.27)"/><path d="M1997.4,647.16c-6.27,6.18-11,11.17-16.1,15.76-3.93,3.54-7.94,7.3-12.57,9.71-15.34,8-30.55,16.7-49.07,13.51-16.58-2.85-30.42-9.54-41.47-23.12-10.91-13.39-13.57-28.55-13.77-44.61-.22-17.79,3.53-34.69,10.64-51.32a197.9,197.9,0,0,1,37.6-57.07c20.34-21.87,43.67-40.13,72.61-49.73,18.69-6.19,38.18-8.74,57.11-3.47,18.4,5.12,35.5,13.71,43.75,33.27,3,7.06,5.42,7.56,11.18,2.87,15-12.18,32.2-16.43,51.19-15.48a23.29,23.29,0,0,1,17,7.73c-4.51,5.32-8.88,10.6-13.38,15.75-10.26,11.75-21,23.12-30.78,35.22-10.25,12.63-19.66,25.93-29.44,38.93a42.32,42.32,0,0,0-3,3.95c-8.18,14-16.12,28.16-24.53,42-3.23,5.34-8,9.78-8.66,16.48-.22,2.31-1,4.62-.86,6.89.36,7.42,5,11.18,12.15,9,18.89-5.82,37.08-13.42,51.3-27.7s27.92-29.41,41.85-44.13c5.92-6.26,7.7-6.4,14.44-2.49,3.75,2.18,4.49,4.94,2.14,8.21-3.85,5.34-8,10.44-12.13,15.61-1,1.29-2.46,2.32-3.27,3.73-9.79,16.93-24,30.1-37.92,43.34-11.72,11.17-24.19,21.42-38.62,29.6-9.22,5.23-17.89,9.1-28.35,10.63-20.22,3-41.8-9.06-49.11-25.13C2004.54,659.17,2001,653.62,1997.4,647.16Zm2.31-33.88-1.59-2.71c-2.85.23-5.71.33-8.54.72-3.07.42-6.36,1-7.46-2.81-1.2-4.21,1.92-5.83,5.22-7.12,2.16-.84,4.6-1.47,6.27-2.93,10.45-9.11,21.25-17.92,30.92-27.82a138.71,138.71,0,0,0,28-41c4.81-10.88,7.14-22.25,3.45-33.95a13.78,13.78,0,0,0-5.71-7.41c-11.26-6.19-23.09-6.14-34.5-.52a113.1,113.1,0,0,0-18.56,11.6c-28.84,22-48.8,50.41-60.29,84.79a49.67,49.67,0,0,1-3.23,7.27,59,59,0,0,0-6.79,29.78c.46,14.92,12.76,24.44,27.17,19.83s27.39-11.9,39.54-20.7c2.39-1.76,4.07-4.64,6.1-7Z" transform="translate(-335.53 -318.27)"/><path d="M1081.49,554c5.27-5,9.81-9.81,14.82-14s10.16-8.57,15.91-11.61c6.43-3.39,13.51-5.68,20.49-7.86,6.61-2.06,13.17-2,18.89,4.39-3.62,6.76-7.59,13.51-10.93,20.56-6.62,14-11.67,28.86-19.61,42-10.36,17.17-12.85,37-21.49,54.68-2.89,5.89-4.35,12.56-5.92,19-3.07,12.58-6.59,25.14-8.35,37.92-1.67,12,4.1,16.07,15.55,11.76a47.2,47.2,0,0,0,14.58-8.4c7.42-6.58,15.21-13.3,20.65-21.43,10.51-15.74,19.65-32.41,29-48.89,2.77-4.86,3.9-10.66,6.74-15.46,3.44-5.82,7.63-6.63,12.58-3.75,4.06,2.37,5.25,5.37,3.34,10-4.29,10.4-7.59,21.24-12.35,31.41-4.91,10.49-10.83,20.55-16.74,30.54-6.74,11.39-12.92,23.34-21.21,33.54-12,14.81-24.11,29.56-45.08,33.94-10.72,2.24-19.53,2-29.64-1.73-8.88-3.29-14.8-9.77-21.81-15.11-1.56-1.2-1.64-4.22-2.65-6.28-2.39-4.83-5.7-5.15-9-.77a37.07,37.07,0,0,0-4.08,6.86,88.42,88.42,0,0,1-34.38,38.05c-16.47,10.16-35,12.38-53.88,6.49-15.41-4.81-25.17-15.29-33.44-29.2-14.69-24.74-14.22-50.62-9.71-77.2a188.72,188.72,0,0,1,27.35-71.08c9.13-14.18,19.36-28,31.18-40,8.1-8.17,17-16.6,28.77-20.69,6.74-2.35,12.2-7.26,19.54-9.22,17.64-4.72,35.17-4.78,52.15.81,7.87,2.6,14.45,9.19,21.49,14.15C1076.58,549.09,1078.55,551.29,1081.49,554Zm-53.6,136c-2.77-1.19-3.44-1.78-3.94-1.65-2.88.71-5.68,2-8.58,2.28-2.27.19-4.64-.89-7-1.41.76-2,1-4.59,2.38-6,12.34-11.88,21.26-26,28.34-41.47a37,37,0,0,1,3.66-7.07c5.25-6.83,7.32-14.83,9-23,1-5.22,2.35-10.44,2.69-15.72.5-7.88,1.22-16,0-23.67-1-6.87-4.77-13.41-12.61-15.21-11.53-2.64-22.28-1-32.18,6.13a83.15,83.15,0,0,0-22.53,24.86c-8.19,13.6-16.6,27.51-21.77,42.38a223.35,223.35,0,0,0-12,72.47c-.06,12.41,3.63,24,13.48,29.27,10.3,5.46,22.2.82,31-7.65,7.45-7.12,14.75-14.42,21.68-22C1022.77,699,1024.92,694.52,1027.89,690Z" transform="translate(-335.53 -318.27)"/><path d="M2366.92,602.77c-2.77,4.68-4.61,9.54-7.9,13-14.15,15-28.31,30-43.33,44.12-7.65,7.18-17.58,11.88-25.62,18.71-6.63,5.63-13.89,10-21.26,14.37-22.45,13.27-46.2,18.06-72,11.94-19.51-4.63-28.67-18.24-32.3-36.42-1.83-9.14-.82-18.34,1.29-27.67,4.44-19.62,14.62-36.34,25-52.92a469.17,469.17,0,0,1,27.65-40c13.53-17.23,28.2-33.56,42.32-50.33,2.28-2.71,4.26-5.67,7.63-10.2-4.48-.81-7.15-1.71-9.82-1.71-10,0-20,.5-30,.4-12.08-.13-15.55-5.15-11.27-16.47,6.48-17.11,18.16-28.49,36.83-31.23,11.52-1.68,23.1-3,34.69-4.11,2.86-.27,5.85,1,8.8,1.31,8.88,1,17.06.57,23.35-7.46,7.38-9.41,15.57-18.18,23.2-27.4,9.76-11.79,17.32-13.31,31.52-7.9,9,3.42,15.09,9.19,20.12,17,2.73,4.22,3.28,7.48-.26,11.57-4.54,5.26-8.52,11-12.63,16.64-.74,1-1,2.38-1.65,4.17,1.65,1.18,3,2.56,4.71,3.29,9.08,4,18.41,7.42,27.26,11.83,3,1.49,5.46,4.95,7.06,8.08A97.31,97.31,0,0,1,2427,482c1.58,5.29-.07,7.28-5.56,8.22a31.66,31.66,0,0,1-6,.34c-19-.47-38-.69-56.9-1.61-9.88-.48-17.3.47-23.37,10.55-7.27,12.08-17.77,22.19-26.63,33.34s-17.62,22.54-26.21,34-16.39,23.47-25.5,34.43c-6.81,8.19-12,17.37-18.17,25.73-3.92,5.29-7.66,10.43-10.2,16.38a142,142,0,0,0-5.48,15.94c-3.2,10.88,5,20.84,16.21,18.53,12.26-2.52,24.28-5.41,35.44-12.53,16.88-10.77,32.88-22.45,47.44-36A321.78,321.78,0,0,0,2346,604C2352.19,596.77,2356.57,595.9,2366.92,602.77Z" transform="translate(-335.53 -318.27)"/><path d="M2156.87,985.25c2.71,1.72,4.36,2.82,6.07,3.84,3.24,1.93,3.87,4.74,1.74,7.58-10.76,14.32-21.45,28.69-32.64,42.67-5.39,6.71-11.87,12.55-17.77,18.85-17.11,18.27-36.51,33.53-57.76,46.84a206,206,0,0,1-79.87,29.19,31.75,31.75,0,0,1-9.92.27c-32.91-5.63-57.47-23.33-70.45-54-6.65-15.67-10.53-33.06-5.12-50.73a65.71,65.71,0,0,0,2.23-12.76c1.34-13.61,9-24.75,14-36.94,8.41-20.28,22.49-36.69,37.27-52,20.89-21.59,46.88-35.58,75.86-44.42a190.4,190.4,0,0,1,49.15-7.71c12.83-.44,25.82,1.7,37.51,8.5,12,7,19.66,21.38,18.19,35.23-1.7,16.12-8.34,29.7-19,42-14,16.2-31.41,26.85-50.54,35.89a208.48,208.48,0,0,1-67,18.61c-5.53.61-11.2.21-16.78-.13-8.15-.49-9.14.64-12,8.42-4,11-4,22.46-3.41,33.51.66,11.76,6.57,21.79,17.2,28.8,17.51,11.54,35.53,7.62,53.66,3,5.11-1.31,9.83-4.12,14.9-5.68,15.15-4.68,28.78-12.94,41-22.13,16.91-12.66,32.65-27.26,44.74-45.07,5.75-8.46,11-17.32,17.3-25.3C2148,988.56,2152.83,987.42,2156.87,985.25Zm-187,14.76c3.08-.45,5.22-.57,7.26-1.08,15-3.73,28.66-10.41,42.35-17.38,23.26-11.84,42.68-27.82,57.17-49.56,4.14-6.21,6.55-13,5.1-20.76-1.24-6.66-4-10-10.46-9.53a57.8,57.8,0,0,0-30.56,11.13c-9.76,7.28-18.18,16.41-26.92,25-18.07,17.77-31.4,38.91-44,62.17Z" transform="translate(-335.53 -318.27)"/><path d="M2450.22,997.7a61,61,0,0,1-6.92-1.77c-6.48-2.38-8.35-8-4.43-13.47,16.08-22.46,30.59-45.83,41.73-71.21,3.73-8.5,7.74-16.88,11.84-25.22,5.71-11.63,12.21-14.32,25.07-12.87a66.51,66.51,0,0,1,39.87,18.75c6,5.76,6.3,9.38,2.28,16.68-11.39,20.65-24.11,40.76-33.42,62.33-12.65,29.32-23.45,59.59-22,92.51.23,5.13,0,10.27,0,16.82,3-1.54,5.49-2,6.59-3.54,8.16-11.26,16-22.76,24-34.11,3.06-4.32,6.43-8.43,9.56-12.71,7.77-10.61,15.22-21.47,23.28-31.86,10.77-13.86,22-27.37,33-41,1.67-2.08,3.36-4.14,5.09-6.17,6.36-7.46,10.31-15.2,5.6-25.39-1.39-3-1.15-7.38-.27-10.77,4.34-16.79,10.63-32.76,23.22-45.29,6.31-6.28,12.7-12.68,19.94-17.76,8.39-5.88,20.12-2.39,25.15,6.74a132.5,132.5,0,0,1,8.28,18.1c3.66,10-.39,19.16-4.57,27.8-6.93,14.3-14.69,28.2-22.54,43.12,9.67,8.14,21,11.2,33.13,10.06,10.87-1,21.51-4.19,32.36-5.7,10.27-1.43,18-8.4,27.33-11.6,1.51-.52,3-1.16,5.33-2.08.61,5.94-2.29,9.46-5.52,12.66-14.52,14.42-31.5,23.92-52,27.41-12.66,2.16-25.07,3.45-37.57.06a81.19,81.19,0,0,1-15-5.2c-4.72-2.35-7.82-1.78-11.28,2.16q-17.8,20.25-36.07,40.09c-9.66,10.53-19.63,20.76-29.37,31.23-17.85,19.18-35.59,38.47-53.47,57.64a227.78,227.78,0,0,1-16.9,17c-9.76,8.46-19.28,8.3-28.2-.72a75.34,75.34,0,0,1-12.53-16.58c-10.57-19.33-16.67-39.81-14.27-62.27C2448.11,1027.42,2449,1013.23,2450.22,997.7Z" transform="translate(-335.53 -318.27)"/><path d="M1623.52,1028.29c-3.84-.47-6.46-.59-9-1.12-6.62-1.41-9.44-7.66-5-12.76,7.67-8.79,9.6-20,14-30.11,4.14-9.41,7.54-19.14,11.76-28.51,6.33-14,9.91-28.87,14-43.62,1.41-5.14,5.73-9.56,9-14.09,3.89-5.35,9.65-3.14,14.82-3.14,15.58,0,29.33,5.37,41.69,14.51,6.93,5.14,7.1,7.25,3.42,15.16-2.66,5.72-4.94,11.62-7.22,17.51-14.39,37.07-25,75.13-28.07,114.9-.91,11.85.55,23.88,1,35.83a8.07,8.07,0,0,0,.88,3.86c1,1.56,2.37,3.74,3.81,3.93s3.89-1.34,4.69-2.78c8.21-14.78,16.11-29.74,24.23-44.58,7.82-14.28,15.8-28.48,23.74-42.7,1.3-2.33,2.89-4.5,4.08-6.87a443.51,443.51,0,0,1,29.18-49.49c2.77-4.08,2.19-8,.76-12.33-2.86-8.59-5-17.49-3-26.5,3.33-14.88,6.68-29.8,17.45-41.71,4.2-4.65,7.29-10.3,11.36-15.08,8.66-10.16,17.19-11.23,26.57-2.3,11,10.52,17.82,23.14,14.31,39.3-3.4,15.64-7,31.14-15.59,45-4.22,6.81-3,11,4.81,12.5,9,1.68,18.68,2.82,27.58,1.33,20.17-3.39,38.91-11.11,55.26-23.9,1.69-1.31,4-1.76,6-2.56,3.19,3.81,1.81,7-.45,9.46-6.72,7.31-13.27,14.88-20.76,21.33-10.75,9.26-24,14.47-37.51,17.72-14.85,3.57-30.13,6.29-45.29.46-5.91-2.28-9.64,1.31-12.57,5.53-7.94,11.47-15.54,23.17-23.41,34.68-4.86,7.12-9.91,14.11-15,21.09-8.32,11.47-17,22.7-25,34.34-12,17.33-23.44,35.07-35.51,52.35a159.24,159.24,0,0,1-17.59,21.6c-8.18,8.16-14.25,7.47-23.62.58-17.12-12.59-26.9-29.69-33-49.64-5.72-18.75-6.71-37.91-6.81-57.25C1623.5,1036.38,1623.52,1032.51,1623.52,1028.29Z" transform="translate(-335.53 -318.27)"/><path d="M2453.71,751.08c-23.38-.41-39.94-1.48-54.62-11-19.85-12.86-32.93-30.51-38.69-53.58-5.62-22.57-.67-43.37,9.5-63.61a171.33,171.33,0,0,1,33.76-46.68c17.76-17.21,37.93-31.1,61.27-40.24,35.66-13.94,72.18-14.93,109-7.24,16.93,3.54,31.66,11.88,40,28.52a28.86,28.86,0,0,1,1.14,24.2c-6.42,16.67-17.58,29.39-32.92,38.79-13,8-27.08,12.7-41.6,16.55-20.71,5.5-41.75,7.26-63.19,6.73-11.45-.29-22.33-2.65-33.32-5-7-1.5-8.83-1.15-11.77,5.48-5,11.22-9.48,22.44-9.86,35.23-.48,16.48,7.17,27.24,21,34.38,11,5.67,23,6.63,35.09,6.12a180,180,0,0,0,60.28-12.79c20.18-8.15,38.84-18.55,55.55-32.51,7.64-6.39,15.52-12.5,23.39-18.61a30.39,30.39,0,0,1,7.62-4.66,7.57,7.57,0,0,1,9.48,3.57c1.11,2,.82,6.28-.64,8a87.92,87.92,0,0,1-15,14.49c-17.54,12.62-34.93,25.6-53.39,36.76-24.28,14.68-50.37,25.95-78.12,32.36C2474.48,749.37,2460.74,750.14,2453.71,751.08ZM2556.3,549.29c-8.52,2.63-21.56,5-33.05,10.54-24.34,11.79-45.33,28.64-64.34,47.89-2.55,2.58-5.37,4.94-7.6,7.76-1.52,1.92-2.22,4.47-3.29,6.74a59.09,59.09,0,0,0,7.76,2.64c1.54.32,3.28-.37,4.92-.64l22.55-3.74c14.41-2.41,28.75-5.26,41.85-12.07,10.21-5.31,21-9.17,30.22-16.94,6.12-5.16,12.66-9.81,16.75-16.55a30.79,30.79,0,0,0,3.94-15C2576.09,553,2570.81,550,2556.3,549.29Z" transform="translate(-335.53 -318.27)"/><path class="cls-1" d="M2895.77,318.27a58.32,58.32,0,0,1,18.68,32.55c.32,1.62.37,3.59,1.34,4.72,5.1,5.91,10.51,11.56,15.69,17.4,2.59,2.92,5.58,5.74,7.28,9.16,5.74,11.56,10.92,23.39,16.49,35a18.1,18.1,0,0,0,4.29,5.47c11.69,10.33,18.63,24,26.25,37.16,7.32,12.65,14.6,25.33,21.67,38.13,12,21.79,20.5,44.59,20.43,70,0,12,.89,24,1.44,35.92.14,3,0,6.93,3.81,7,2.35,0,5.16-2.28,7-4.24s2.73-4.55,3.78-7c5.73-13.33,11.33-26.71,17.09-40,1.83-4.25,4.14-8.28,6-12.53,2.86-6.69,5.51-13.47,8.19-20.23,1-2.44,1.07-5.58,2.72-7.31,3.33-3.48,4.69-6.88,3.5-11.67-.34-1.39,1-4.17,2.25-4.71s3.74.71,4.82,1.94c3.34,3.77,5.69,8,5.72,13.43,0,5.63,1.09,11.25,1.31,16.89.19,5,.54,10.07-.41,14.88-1.75,8.86-3.57,17.58-2.16,26.7.34,2.19-.31,4.63-.88,6.85-3.54,13.86-6.36,28-11.07,41.43-4.13,11.81-10.23,23-15.85,34.22-4.89,9.8-10.91,19.08-15.38,29.06-4.66,10.44-11.1,18-22.77,20.27a47.57,47.57,0,0,0-10.39,3.55c-3.3,1.51-7.41,2.88-9.26,5.61-4.45,6.58-11,10.12-17,14.79-6.19,4.87-10.83,11.57-19.82,12.31-2.45.2-4.4,4-7,5.3-17.13,8.73-34.32,17.33-51.64,25.66-2,1-5,.06-7.47,0,.25-2.78-.33-6,.9-8.25,3.35-6,7.68-11.52,11.22-17.46,5.42-9.1,10.27-18.53,15.77-27.57,5.33-8.76,10.9-17.42,16.89-25.73,5.44-7.54,12.53-14,17.22-21.93a75,75,0,0,0,10.07-35c.64-13.63.77-27.31,2.09-40.88,2.35-24.15-.3-47.91-5.24-71.38-1.91-9-3.51-18.61-10.51-26.17-3.16-3.42-4.7-8.76-5.87-13.51-2.64-10.71-12.51-17.48-14.65-28.6-.94-4.9-5.18-9.08-7.28-13.87-6.23-14.21-12.19-28.55-18.11-42.89a75.35,75.35,0,0,1-2.43-8.61c-1.08-3.84-1.56-8-3.38-11.43-9.07-17.24-12.72-36.15-17.51-54.72C2892.61,324.1,2892.71,324.07,2895.77,318.27Z" transform="translate(-335.53 -318.27)"/><path d="M2118,1071.6c1.82-2.54,3.49-5.21,5.5-7.6,10.66-12.72,21.77-25.11,32-38.15q14.72-18.67,28-38.48c6.06-9.07,10.84-19,16.25-28.5,1.64-2.88,3.64-5.58,5.14-8.53,6-11.83,12-23.67,17.82-35.63,2.22-4.61,3.36-9.79.32-14.39-8.89-13.48-3.66-25.41,3.7-37.1,3.16-5,6.51-9.57,12.81-11.87,14.25-5.21,25.15,2,24.15,17.22-.27,4.15-2.13,8.25-3.52,12.28-2.18,6.28-.39,10.77,6,10.53,13.25-.5,26.47-2.21,39.63-3.91,2.25-.29,4.23-3,6.24-4.66,2.79-2.35,5.48-4.82,8.22-7.24,4.25-3.77,9.11-4.38,13.87-1.6,11.85,6.91,22.51,14.82,28.95,27.8,5.32,10.72,1.22,18.81-5.11,26.4-11.49,13.78-23.87,26.83-35.23,40.7-8.2,10-15.32,20.88-23,31.3-9.12,12.36-15.85,26.06-22.26,39.89-4.24,9.17-6.2,19-4.81,29.15,1.36,9.9,5,13.19,15,14,12.41,1,23.54-1.68,32.95-10.69,4-3.81,9.91-5.57,13.9-9.36,12.53-11.92,25-24,36.63-36.73,7.77-8.5,14.09-18.33,21.13-27.5,2.62-3.42,5.15-7,8.33-9.86,1.69-1.5,4.92-2.55,7-2,3.61.9,8.43,1.15,9.39,6.13.83,4.26-2,6.68-5.22,8.83a9.67,9.67,0,0,0-3.43,3.53c-4.78,10.29-12,18.88-18.77,27.85-21.93,29.3-46.54,55.73-79.88,72.28a91.67,91.67,0,0,1-62.2,7.51c-21.16-4.78-36.41-23.53-36.82-46.36-.3-16.41,2-32.54,11.06-46.93a35,35,0,0,0,3.57-8.23c5-15.76,15-28.93,23.21-42.87,7.68-13,18.46-24.23,27.7-36.38,1.45-1.91,3.26-5.16,2.54-6.7s-4.23-2.38-6.65-3c-6.77-1.63-13.75-2.53-20.39-4.56-4.74-1.46-7.83-.25-10.2,3.55-3,4.79-6.53,9.45-8.43,14.68-6.25,17.27-15.22,33.14-24.37,48.92-11.67,20.1-24.21,39.67-39.3,57.41-10.9,12.81-23.71,23.36-40,28.85-3.23,1.09-6.73,1.39-10.1,2.05Z" transform="translate(-335.53 -318.27)"/><path d="M731.92,655.84c-4-.44-6.07-1.21-7.82-.76a78.74,78.74,0,0,1-24.66,2.11c-5.68-.35-6.86,1.86-7.88,9.21-1.83,13.17-3.21,26.44-5.84,39.46-6.61,32.67-14.82,65-28.38,95.55-3,6.83-9.29,12.2-12.49,19-3.56,7.57-10,11.09-16.36,15-1.49.92-3.57.89-6.45,1.54.65-2.87.81-4.74,1.49-6.41,6.65-16.28,13.78-32.38,20-48.82,12.34-32.43,20.27-66.09,26.52-100.15,1.07-5.88,1.26-11.92,2.13-17.84,1.07-7.21-.71-12.5-5.44-18.89-13.13-17.74-8.38-38.06,9.62-49,10-6.09,23.58,1.37,24.33,13.17.26,4-.52,8-.53,12,0,6.75,2.37,9.41,8.34,7.29,11.86-4.21,23.37-9.46,34.91-14.54,1.62-.72,2.71-2.83,3.82-4.45s1.85-3.55,2.93-5.22c9.34-14.36,12.72-15.43,28.43-8.64,5.79,2.5,11.71,4.9,17.11,8.13,13.29,8,15.93,18.08,9.4,32.2-8.78,19-18.5,37.65-25.68,57.24-10,27.4-21.27,54.8-19.68,85,.11,2,0,4,.27,6,2,15.13,17.15,22.22,30,14a100.69,100.69,0,0,0,30.06-30c12.67-19.27,22.77-39.78,31.4-61.12,2.83-7,7.15-13.37,7.88-21.25.2-2.07,1.91-4.29,3.49-5.88,2.74-2.75,6.23-4,10-2.19,3.61,1.71,4.47,5.2,3.58,8.51-2,7.33-4.41,14.54-6.9,21.72-1.19,3.43-3.53,6.54-4.34,10-6,25.84-20.21,47.82-33.92,69.72-8.5,13.57-20,25.12-33.73,34.65C785,830.85,772.26,836.07,757.29,838c-29.7,3.77-52.65-17.13-55.81-44.19-2.44-20.9.81-41.18,3.44-61.63.42-3.24,2-6.33,3-9.5,3.2-10.16,6.19-20.39,9.66-30.45,2.25-6.53,5.28-12.8,7.85-19.22C727.49,667.82,729.38,662.59,731.92,655.84Z" transform="translate(-335.53 -318.27)"/><path class="cls-1" d="M2700.05,526.21c8.14,3.92,14.17,7.84,16.47,16.11.68,2.44,3.14,5.77,5.25,6.16,6.37,1.18,8.87,5.32,10.57,10.64.92,2.85,2.17,5.66,2.58,8.58a16.91,16.91,0,0,0,8.24,12.91c4.59,2.87,6.87,7.59,9.42,12.45,5.67,10.8,12.57,21,19.17,31.25a11.32,11.32,0,0,0,4.64,3.63c3.76,1.77,7.07.27,7.08-3.93,0-15.45,8.87-28.39,11.63-43,1.11-5.87,2-11.82,3.53-17.57,2.62-9.58,5.7-19,8.62-28.52,1.56-5.06,2.82-10.25,4.88-15.1,6.85-16.18,14.39-32.07,20.91-48.38,7-17.58,13.32-35.45,19.63-53.3,1.18-3.35.55-7.32,1.5-10.79.62-2.26,2.61-4.15,4-6.2,1.72,1.71,4.47,3.15,5,5.16,2.19,8.66,4.6,17.28,1.58,26.5a24.15,24.15,0,0,0-.07,12.71c3.49,14.06,1,27-5.57,39.56a26.66,26.66,0,0,0-2.88,11.27,126.63,126.63,0,0,1-6.37,37.22c-7.19,21.6-9.36,44.13-11.72,66.63-1.38,13.18-3.79,26.25-5.4,39.41a32.52,32.52,0,0,0,.66,10.86c4.34,19.09,9.28,38,13.3,57.21,1.72,8.2,3.9,16,8.05,23.3,1,1.72,1.56,4.08,3,5,5.05,3.29,6.69,7.76,6.39,13.55-.23,4.5,3,6.89,6.3,9.45,3.88,3,7.77,6.38,10.37,10.42,2.87,4.43.13,8.4-5,7.34-11-2.26-22.53-2.13-32.88-7.71-7.6-4.09-16.09-6.52-23.62-10.68-8.88-4.91-17.27-10.74-25.62-16.53-2-1.41-3.06-4.26-4.63-6.38-1.78-2.4-3.33-5.07-5.53-7-6.93-6.1-14.88-11.23-21-18-6.81-7.54-12.42-16.26-17.87-24.9-6.17-9.77-7.86-21-9-32.34a15.53,15.53,0,0,0-1.49-4.7c-6.08-13.56-12.43-27-18.24-40.69-3.37-7.94-6.89-16-8.58-24.41-3.47-17.2-5.78-34.64-8.47-52C2698.7,530.26,2699.41,529,2700.05,526.21Z" transform="translate(-335.53 -318.27)"/><path d="M1399.29,1104.51a184.55,184.55,0,0,1,10.42-64.74c1.45-4.06,2-8.43,3.5-12.49a359.14,359.14,0,0,1,25.49-56.06,292.2,292.2,0,0,1,20-30.91c14.65-19.66,34.73-24,57.35-22.42a65.27,65.27,0,0,1,7.86,1.38c7.7,1.45,9.19,5.12,4.83,11.81-4,6.1-8.33,12-11.78,18.36-14.08,26-27.06,52.53-37.41,80.17-7.1,19-12.71,38.57-17.82,58.19-2.22,8.54-2.09,17.85-1.9,26.79.08,4,2.35,8.32,4.69,11.77,3.06,4.5,7.91,6.14,13.25,3.94,8.91-3.68,17.28-7.91,25-14.19,14.33-11.63,25.89-25.71,37.79-39.46,6.69-7.73,12-16.74,17.48-25.4,4.28-6.72,8-13.8,12-20.71a17.39,17.39,0,0,1,1.66-2.49c3.42-4.14,9.62-5.61,13.41-3.22,3.27,2.06,4,6.38,1.24,11.71-5.09,9.72-10.19,19.47-16,28.75-7.76,12.37-15.77,24.64-24.52,36.32-6.92,9.24-15,17.64-22.79,26.19-6.67,7.31-13.5,14.51-20.6,21.4-18.94,18.38-46.11,29.66-71,20.84a35,35,0,0,1-18-13.56C1403.05,1141.43,1399.51,1128.83,1399.29,1104.51Z" transform="translate(-335.53 -318.27)"/><path class="cls-1" d="M2908.81,491.34c8.84,9.07,17,18.78,19,32.29.32,2.16,1.37,4.87,3,6.07,5.82,4.29,5.4,10,5.14,16.16-.23,5.58,1.31,11.23,1.14,16.83-.54,17.95-1.07,35.91-2.51,53.8-.58,7.13-3.83,14-5.36,21.11-1.66,7.75-2.2,15.77-4.24,23.4-1.77,6.64-4.93,12.91-7.53,19.33-5.21,12.88-11.38,25.48-15.37,38.73-2.6,8.65-5,17.93-2.78,27.46.43,1.82-1,4.08-1.49,6.14-2.32-.81-5.32-1-6.86-2.54-8.68-8.94-13.88-20.44-21.41-30.19-11.6-15-7.64-30.66-3.14-46.31,2.57-8.92,6-17.43,6.91-26.91.62-6.41,3.46-12.85,6.41-18.73,5.62-11.23,7.45-24,15-34.55,3.13-4.37,2.23-11.56,3.42-17.42,1.59-7.81,3.37-15.59,5.16-23.36,3.28-14.21,7.54-28.23,5.55-43.2C2908.15,503.51,2908.81,497.38,2908.81,491.34Z" transform="translate(-335.53 -318.27)"/><path class="cls-1" d="M3025.92,873.46l-1.8,3c-1.55,0-3.49.6-4.61-.1-10.46-6.53-22.79-6.72-34.09-10.34a146.55,146.55,0,0,1-21.22-8.16c-7.66-3.87-14.37-2.74-21.9.39-10.32,4.29-20.46,9.93-32.31,8.82-3.64-.34-7.29-.71-10.87-1.38-6-1.12-11.88-1.09-17.57,1.64s-11.26,2.77-17.42.9c-4.62-1.4-9.84-1.37-14.75-1.13-8.3.4-16.61,1.2-24.85,2.31-26.67,3.62-53.14-1.79-79.73-1.6-2,0-4.07-1.4-6-2.1.49-5.19,4.23-5.58,7.25-6.58,6.63-2.2,13.46-3.85,20-6.36,6.12-2.36,11.86-5.67,17.88-8.32a55.07,55.07,0,0,1,11.14-3.94,183.5,183.5,0,0,1,20.73-3.13c19-1.64,35.52-10.58,52.74-17.32,8.57-3.35,11.77-12.2,13.75-20.65,2.19-9.3,6.05-12.06,14.52-8.19,5.38,2.45,10.26,6,15.39,9,2.57,1.51,5.3,2.75,7.77,4.4,6.32,4.19,12.53,8.54,18.77,12.83,2.73,1.88,5.43,3.8,8.18,5.65,1.92,1.3,4.12,2.27,5.83,3.79,7.16,6.37,14.18,12.91,21.29,19.34a19.92,19.92,0,0,0,4,2.94q22.08,11.46,44.24,22.79A32,32,0,0,0,3025.92,873.46Z" transform="translate(-335.53 -318.27)"/><path d="M787,990.27c-4.12,0-7.54.63-10.59-.15A53.74,53.74,0,0,1,763.92,985c-1.2-.66-2-3.76-1.53-5.18a5.62,5.62,0,0,1,4.55-2.85c8.37,1.14,15.74-2.14,23-5.05A35,35,0,0,0,802.33,964a154.56,154.56,0,0,0,15.23-19.45c9-13.19,21.76-20.08,36.73-23.73,1.14-.28,2.52.41,4.17.72.29,5.21-3.66,7.84-6,11.09-5.43,7.48-11.34,14.62-16.91,22-2.95,3.9-1.66,6.88,3.39,7.54,3.95.51,8,.09,12,.52s8,.86,11.63,2.32c2,.81,3.13,3.73,4.66,5.71-2.06,1.36-4,3.51-6.19,4-10.06,2-20.22,3.52-30.33,5.26a50.85,50.85,0,0,0-5.84,1.33c-7.48,2.23-8.12,3.41-7.1,11.51a99.3,99.3,0,0,1-4,44.27c-2.61,7.87-4.52,16-6.49,24-4.14,17-11.95,32.34-20.83,47.12a49.43,49.43,0,0,1-13.66,14.13c-9.1,6.49-20.14,1.62-21.53-9.55-.92-7.47-1.17-15.54.66-22.75a505.8,505.8,0,0,1,15.2-49.5c5.7-15.58,13-30.58,19.46-45.86A34.67,34.67,0,0,0,787,990.27Zm-14.79,118.54c4.11-5.47,8.28-10.9,12.31-16.44,6.84-9.38,5.81-22.61,15-30.91.8-.73.65-2.51,1-3.8,1-4.19,1.83-8.4,2.93-12.56,2.46-9.32,5.17-18.57,7.49-27.93.88-3.58,2.51-7.56-.94-11-13.66,11.27-42.32,84.88-37.76,102.64Z" transform="translate(-335.53 -318.27)"/><path d="M1536.49,799.23c9.42,1.82,19.08,2.85,28.21,5.64,16,4.89,23.92,26.66,17.54,42-12.32,29.59-49.88,34.6-71.89,21.14-10.16-6.2-16.22-18.2-14.11-29.65,1.14-6.2,3.3-12.21,4.39-18.41,2.17-12.32,11.33-16.31,21.77-18.6,4.51-1,9.25-.9,13.88-1.31Z" transform="translate(-335.53 -318.27)"/><path d="M730.92,1050.8c15.53-.29,19.23-14.13,29.46-22.3,0,3.61.75,6.07-.14,7.49-3.17,5-6.18,10.55-10.58,14.35-6.7,5.78-12.71,12.76-21.75,15.5-5.42,1.64-8.35,5.82-10.77,11-6.49,13.81-17.37,23.32-31.21,29.54-18.53,8.33-42.73-2.28-46.06-23.6-1.81-11.55.3-21.69,3.4-32,3.8-12.61,13.23-21.08,23.63-28.66S689,1011.5,701.07,1009c16.7-3.49,28.92,6.15,29.8,23.3C731.17,1038.14,730.92,1044,730.92,1050.8Zm-25.3,21.8a32.91,32.91,0,0,0-3.41-1.45c-7.2-2.17-8.57-4.32-6.32-11.34,2.37-7.39,7.1-12.75,14.81-14.89,3.5-1,6-2.31,6.14-6.55.32-13.43-11-22-23.53-17.34a34.17,34.17,0,0,0-10.22,6c-14.36,12.32-18.19,29-17.84,46.8.15,7.4,6.11,12.29,10.77,17.42.94,1,3,1.31,4.6,1.45,10.85.93,22.38-8.28,25-20.1Z" transform="translate(-335.53 -318.27)"/></svg>